<?xml version="1.0" encoding="utf-8"?>
<!-- Svg Vector Icons : http://www.onlinewebfonts.com/icon -->
<!DOCTYPE svg PUBLIC "-//W3C//DTD SVG 1.1//EN" "http://www.w3.org/Graphics/SVG/1.1/DTD/svg11.dtd">
<svg version="1.1" xmlns="http://www.w3.org/2000/svg" xmlns:xlink="http://www.w3.org/1999/xlink" x="0px" y="0px" viewBox="0 0 1000 1000" enable-background="new 0 0 1000 1000" xml:space="preserve">
<metadata> Svg Vector Icons : http://www.onlinewebfonts.com/icon </metadata>
<g><g transform="translate(0.000000,511.000000) scale(0.100000,-0.100000)"><path d="M4611.4,2126.4c-40.2-15.3-91.9-42.1-112.9-63.2c-57.4-49.8-111-176.1-111-258.4v-72.7h-90c-174.2,0-530.2-225.8-756.1-478.5l-118.7-134H1761.4H100V813.3V507.1h1527.4h1525.5l44-95.7c30.6-67,74.7-118.7,143.6-170.3c201-149.3-70.8-135.9,2779.2-135.9h2557.2l-5.7,202.9l-5.7,204.8l-162.7,34.5c-191.4,38.3-304.3,78.5-411.5,141.6c-132.1,76.6-134,82.3-78.5,258.4c109.1,344.5,36.4,602.9-206.7,733.1c-76.6,40.2-101.4,42.1-930.2,51.7l-851.8,9.6l-11.5,97.6c-7.7,53.6-21.1,114.8-32.5,135.9c-34.4,63.2-132.1,135.9-210.5,158.9C5658.4,2164.6,4701.4,2157,4611.4,2126.4z"/><path d="M1661.9-145.6c-231.6-80.4-459.4-271.8-633.6-535.9c-82.3-120.6-275.6-505.3-306.2-604.8l-11.5-44h306.2c183.8,0,310.1,7.6,317.7,19.1c21.1,34.5,38.3,19.1,86.1-80.4c72.7-155,252.7-323.5,444.1-413.4c287.1-137.8,45.9-128.3,3451-128.3h3081.6l143.6,44c294.8,91.9,526.4,268,641.2,488.1c57.4,109.1,74.7,124.4,95.7,90c7.7-11.5,134-19.1,315.8-19.1H9900l-21,51.7c-53.6,141.6-199.1,417.3-302.4,576.1c-201,306.3-423,493.8-669.9,566.6c-93.8,26.8-457.5,30.6-3617.6,30.6C1811.2-107.4,1772.9-107.4,1661.9-145.6z M2465.8-561c99.5-51.7,225.9-189.5,258.4-283.3c34.5-101.4,30.6-268-9.6-359.8c-82.3-195.2-225.9-298.6-430.7-313.9c-216.3-15.3-375.2,68.9-478.5,246.9C1642.7-985.9,1771-650.9,2083-534.2C2182.5-497.8,2366.2-511.2,2465.8-561z M3690.8-561c302.4-155,377.1-537.9,153.1-802c-132.1-157-403.9-206.7-601-109.1c-275.6,137.8-367.5,480.4-195.2,738.8C3185.5-528.5,3474.5-450,3690.8-561z M4915.8-561c302.4-155,377.1-537.9,153.1-802c-132.1-157-403.9-206.7-601-109.1c-405.8,202.9-367.5,777.1,65.1,937.9C4632.5-497.8,4816.2-511.2,4915.8-561z M6140.8-561c99.5-51.7,225.9-189.5,258.4-283.3c36.4-107.2,30.6-269.9-15.3-371.3c-55.5-126.3-128.3-201-245-260.3c-91.9-44-122.5-49.8-245-42.1c-174.2,7.6-298.6,74.6-388.5,210.5c-195.2,289-74.7,650.8,254.6,773.3C5857.5-497.8,6043.2-511.2,6140.8-561z M7365.8-561c302.4-155,377.1-537.9,153.1-802c-132.1-157-403.9-206.7-601-109.1c-275.6,137.8-367.5,480.4-195.2,738.8C6860.5-528.5,7149.5-450,7365.8-561z M8590.8-561c99.5-51.7,225.9-189.5,258.4-283.3c76.6-227.8-19.1-493.8-223.9-612.5c-103.4-61.2-306.3-84.2-415.4-47.9c-237.3,78.5-390.5,340.7-338.8,583.8c36.4,181.8,158.9,319.7,338.8,386.7C8307.5-497.8,8493.2-511.2,8590.8-561z"/></g></g>
</svg>